<mxfile host="app.diagrams.net" modified="2023-06-16T09:36:10.608Z" agent="Mozilla/5.0 (Windows NT 10.0; Win64; x64) AppleWebKit/537.36 (KHTML, like Gecko) Chrome/114.0.0.0 Safari/537.36" etag="waaoDLA55QAThWcMmx37" version="21.4.0" type="github">
  <diagram name="第 1 页" id="kQbeWqBSt9fPl-ZRYOgg">
    <mxGraphModel dx="2501" dy="764" grid="1" gridSize="10" guides="1" tooltips="1" connect="1" arrows="1" fold="1" page="1" pageScale="1" pageWidth="827" pageHeight="1169" math="0" shadow="0">
      <root>
        <mxCell id="0" />
        <mxCell id="1" parent="0" />
        <mxCell id="e0GKQ3uuxRqDjrU_kZ5U-3" value="index.jsp" style="edgeStyle=orthogonalEdgeStyle;rounded=0;orthogonalLoop=1;jettySize=auto;html=1;" parent="1" source="e0GKQ3uuxRqDjrU_kZ5U-1" target="e0GKQ3uuxRqDjrU_kZ5U-2" edge="1">
          <mxGeometry relative="1" as="geometry" />
        </mxCell>
        <mxCell id="e0GKQ3uuxRqDjrU_kZ5U-1" value="/frontPage/index.do" style="rounded=1;whiteSpace=wrap;html=1;" parent="1" vertex="1">
          <mxGeometry x="20" y="20" width="120" height="60" as="geometry" />
        </mxCell>
        <mxCell id="e0GKQ3uuxRqDjrU_kZ5U-7" value="" style="edgeStyle=orthogonalEdgeStyle;rounded=0;orthogonalLoop=1;jettySize=auto;html=1;" parent="1" source="e0GKQ3uuxRqDjrU_kZ5U-2" target="e0GKQ3uuxRqDjrU_kZ5U-6" edge="1">
          <mxGeometry relative="1" as="geometry" />
        </mxCell>
        <mxCell id="e0GKQ3uuxRqDjrU_kZ5U-2" value="首页 home/home2.do" style="rounded=1;whiteSpace=wrap;html=1;" parent="1" vertex="1">
          <mxGeometry x="200" y="70" width="120" height="60" as="geometry" />
        </mxCell>
        <mxCell id="e0GKQ3uuxRqDjrU_kZ5U-6" value="/home/home_chuji/home5" style="rounded=1;whiteSpace=wrap;html=1;" parent="1" vertex="1">
          <mxGeometry x="382" width="160" height="160" as="geometry" />
        </mxCell>
        <mxCell id="9b9kK_sF2ZWzqix97Q5n-4" value="&lt;pre style=&quot;background-color:#131314;color:#ebebeb;font-family:&#39;JetBrains Mono&#39;,monospace;font-size:9.8pt;&quot;&gt;&lt;pre style=&quot;font-family: &amp;quot;JetBrains Mono&amp;quot;, monospace; font-size: 9.8pt;&quot;&gt;goodsList = &lt;span style=&quot;color:#ed94ff;&quot;&gt;truckOrderService2&lt;/span&gt;.jiekou_yearlyReport_goodstype(&lt;span style=&quot;color:#ffffff;&quot;&gt;_map&lt;/span&gt;)&lt;/pre&gt;&lt;/pre&gt;" style="rounded=1;whiteSpace=wrap;html=1;absoluteArcSize=1;arcSize=14;strokeWidth=2;" vertex="1" parent="1">
          <mxGeometry x="70" y="297" width="100" height="100" as="geometry" />
        </mxCell>
        <mxCell id="9b9kK_sF2ZWzqix97Q5n-6" value="&lt;pre style=&quot;background-color:#131314;color:#ebebeb;font-family:&#39;JetBrains Mono&#39;,monospace;font-size:9.8pt;&quot;&gt;list = &lt;span style=&quot;color:#ed94ff;&quot;&gt;etcService&lt;/span&gt;.countMonth(&lt;span style=&quot;color:#ffffff;&quot;&gt;_m&lt;/span&gt;ap&lt;span style=&quot;font-size: 9.8pt;&quot;&gt;)&lt;/span&gt;&lt;/pre&gt;&lt;pre style=&quot;background-color:#131314;color:#ebebeb;font-family:&#39;JetBrains Mono&#39;,monospace;font-size:9.8pt;&quot;&gt;&lt;pre style=&quot;font-family: &amp;quot;JetBrains Mono&amp;quot;, monospace; font-size: 9.8pt;&quot;&gt;list = &lt;span style=&quot;color:#ed94ff;&quot;&gt;etcService&lt;/span&gt;.countMonth(&lt;span style=&quot;color:#ffffff;&quot;&gt;_map&lt;/span&gt;)&lt;/pre&gt;&lt;/pre&gt;" style="rounded=1;whiteSpace=wrap;html=1;absoluteArcSize=1;arcSize=14;strokeWidth=2;" vertex="1" parent="1">
          <mxGeometry x="70" y="857" width="100" height="100" as="geometry" />
        </mxCell>
        <mxCell id="9b9kK_sF2ZWzqix97Q5n-8" value="&lt;pre style=&quot;background-color:#131314;color:#ebebeb;font-family:&#39;JetBrains Mono&#39;,monospace;font-size:9.8pt;&quot;&gt;_map = &lt;span style=&quot;color:#ed94ff;&quot;&gt;etcService&lt;/span&gt;.countDay(&lt;span style=&quot;color:#ffffff;&quot;&gt;_map&lt;/span&gt;)&lt;/pre&gt;" style="rounded=1;whiteSpace=wrap;html=1;absoluteArcSize=1;arcSize=14;strokeWidth=2;" vertex="1" parent="1">
          <mxGeometry x="77" y="657" width="100" height="100" as="geometry" />
        </mxCell>
        <mxCell id="9b9kK_sF2ZWzqix97Q5n-17" value="&lt;font style=&quot;font-size: 18px;&quot;&gt;货物类型&lt;/font&gt;" style="text;html=1;align=center;verticalAlign=middle;resizable=0;points=[];autosize=1;strokeColor=none;fillColor=none;" vertex="1" parent="1">
          <mxGeometry x="60" y="259" width="100" height="40" as="geometry" />
        </mxCell>
        <mxCell id="9b9kK_sF2ZWzqix97Q5n-21" style="edgeStyle=none;rounded=0;orthogonalLoop=1;jettySize=auto;html=1;exitX=1;exitY=0.75;exitDx=0;exitDy=0;" edge="1" parent="1" source="9b9kK_sF2ZWzqix97Q5n-8" target="9b9kK_sF2ZWzqix97Q5n-33">
          <mxGeometry relative="1" as="geometry">
            <mxPoint x="370" y="720" as="targetPoint" />
            <Array as="points" />
          </mxGeometry>
        </mxCell>
        <mxCell id="9b9kK_sF2ZWzqix97Q5n-20" value="&lt;font style=&quot;font-size: 18px;&quot;&gt;累积金额&lt;/font&gt;" style="text;html=1;align=center;verticalAlign=middle;resizable=0;points=[];autosize=1;strokeColor=none;fillColor=none;" vertex="1" parent="1">
          <mxGeometry x="230" y="657" width="100" height="40" as="geometry" />
        </mxCell>
        <mxCell id="9b9kK_sF2ZWzqix97Q5n-22" value="&lt;font style=&quot;font-size: 18px;&quot;&gt;绿通/非绿通&lt;/font&gt;" style="text;html=1;align=center;verticalAlign=middle;resizable=0;points=[];autosize=1;strokeColor=none;fillColor=none;" vertex="1" parent="1">
          <mxGeometry x="60" y="810" width="120" height="40" as="geometry" />
        </mxCell>
        <mxCell id="9b9kK_sF2ZWzqix97Q5n-23" value="&lt;pre style=&quot;background-color:#131314;color:#ebebeb;font-family:&#39;JetBrains Mono&#39;,monospace;font-size:9.8pt;&quot;&gt;JSONObject jsonObject = &lt;span style=&quot;color:#ed94ff;&quot;&gt;etcService&lt;/span&gt;.home_find_Etc(&lt;span style=&quot;color:#ffffff;&quot;&gt;user&lt;/span&gt;)&lt;/pre&gt;" style="rounded=1;whiteSpace=wrap;html=1;absoluteArcSize=1;arcSize=14;strokeWidth=2;" vertex="1" parent="1">
          <mxGeometry x="70" y="1052" width="100" height="100" as="geometry" />
        </mxCell>
        <mxCell id="9b9kK_sF2ZWzqix97Q5n-24" value="&lt;font style=&quot;font-size: 18px;&quot;&gt;实时验货记录&lt;/font&gt;" style="text;html=1;align=center;verticalAlign=middle;resizable=0;points=[];autosize=1;strokeColor=none;fillColor=none;" vertex="1" parent="1">
          <mxGeometry x="50" y="1010" width="130" height="40" as="geometry" />
        </mxCell>
        <mxCell id="9b9kK_sF2ZWzqix97Q5n-25" value="&lt;pre style=&quot;background-color:#131314;color:#ebebeb;font-family:&#39;JetBrains Mono&#39;,monospace;font-size:9.8pt;&quot;&gt;&lt;pre style=&quot;font-family: &amp;quot;JetBrains Mono&amp;quot;, monospace; font-size: 9.8pt;&quot;&gt;carList = &lt;span style=&quot;color:#ed94ff;&quot;&gt;truckOrderService2&lt;/span&gt;.jiekou_yearlyReport_car(&lt;span style=&quot;color:#ffffff;&quot;&gt;_map&lt;/span&gt;)&lt;/pre&gt;&lt;/pre&gt;" style="rounded=1;whiteSpace=wrap;html=1;absoluteArcSize=1;arcSize=14;strokeWidth=2;" vertex="1" parent="1">
          <mxGeometry x="70" y="470" width="100" height="100" as="geometry" />
        </mxCell>
        <mxCell id="9b9kK_sF2ZWzqix97Q5n-26" value="&lt;font style=&quot;font-size: 18px;&quot;&gt;货车类型&lt;/font&gt;" style="text;html=1;align=center;verticalAlign=middle;resizable=0;points=[];autosize=1;strokeColor=none;fillColor=none;" vertex="1" parent="1">
          <mxGeometry x="70" y="430" width="100" height="40" as="geometry" />
        </mxCell>
        <mxCell id="9b9kK_sF2ZWzqix97Q5n-30" value="" style="edgeStyle=none;rounded=0;orthogonalLoop=1;jettySize=auto;html=1;" edge="1" parent="1" source="9b9kK_sF2ZWzqix97Q5n-27" target="9b9kK_sF2ZWzqix97Q5n-29">
          <mxGeometry relative="1" as="geometry" />
        </mxCell>
        <mxCell id="9b9kK_sF2ZWzqix97Q5n-27" value="" style="strokeWidth=2;html=1;shape=mxgraph.flowchart.annotation_2;align=left;labelPosition=right;pointerEvents=1;direction=west;" vertex="1" parent="1">
          <mxGeometry x="340" y="320" width="50" height="230" as="geometry" />
        </mxCell>
        <mxCell id="9b9kK_sF2ZWzqix97Q5n-29" value="参数一致，可以使用同一个map" style="whiteSpace=wrap;html=1;align=left;strokeWidth=2;" vertex="1" parent="1">
          <mxGeometry x="435" y="405" width="120" height="60" as="geometry" />
        </mxCell>
        <mxCell id="9b9kK_sF2ZWzqix97Q5n-31" value="&lt;pre style=&quot;background-color:#131314;color:#ebebeb;font-family:&#39;JetBrains Mono&#39;,monospace;font-size:9.8pt;&quot;&gt;Map&amp;lt;&lt;span style=&quot;color:#ffffff;&quot;&gt;String&lt;/span&gt;&lt;span style=&quot;color:#ed864a;font-weight:bold;&quot;&gt;, &lt;/span&gt;&lt;span style=&quot;color:#ffffff;&quot;&gt;Object&lt;/span&gt;&amp;gt; &lt;span style=&quot;color:#ffffff;&quot;&gt;_map &lt;/span&gt;= &lt;span style=&quot;color:#ed864a;&quot;&gt;new &lt;/span&gt;HashMap&amp;lt;&lt;span style=&quot;color:#ffffff;&quot;&gt;String&lt;/span&gt;&lt;span style=&quot;color:#ed864a;font-weight:bold;&quot;&gt;, &lt;/span&gt;&lt;span style=&quot;color:#ffffff;&quot;&gt;Object&lt;/span&gt;&amp;gt;()&lt;span style=&quot;color:#ed864a;font-weight:bold;&quot;&gt;;&lt;br&gt;&lt;/span&gt;&lt;span style=&quot;color:#ffffff;&quot;&gt;_map&lt;/span&gt;.put(&lt;span style=&quot;color:#54b33e;&quot;&gt;&quot;dateStart&quot;&lt;/span&gt;&lt;span style=&quot;color:#ed864a;font-weight:bold;&quot;&gt;, &lt;/span&gt;&lt;span style=&quot;color:#ffffff;&quot;&gt;dateStart&lt;/span&gt;)&lt;span style=&quot;color:#ed864a;font-weight:bold;&quot;&gt;;&lt;br&gt;&lt;/span&gt;&lt;span style=&quot;color:#ffffff;&quot;&gt;_map&lt;/span&gt;.put(&lt;span style=&quot;color:#54b33e;&quot;&gt;&quot;dateEnd&quot;&lt;/span&gt;&lt;span style=&quot;color:#ed864a;font-weight:bold;&quot;&gt;, &lt;/span&gt;&lt;span style=&quot;color:#ffffff;&quot;&gt;dateEnd&lt;/span&gt;)&lt;span style=&quot;color:#ed864a;font-weight:bold;&quot;&gt;;&lt;br&gt;&lt;/span&gt;&lt;span style=&quot;color:#ffffff;&quot;&gt;_map&lt;/span&gt;.put(&lt;span style=&quot;color:#54b33e;&quot;&gt;&quot;depCode&quot;&lt;/span&gt;&lt;span style=&quot;color:#ed864a;font-weight:bold;&quot;&gt;, &lt;/span&gt;&lt;span style=&quot;color:#ffffff;&quot;&gt;unitId&lt;/span&gt;)&lt;span style=&quot;color:#ed864a;font-weight:bold;&quot;&gt;;&lt;br&gt;&lt;/span&gt;&lt;span style=&quot;color:#ffffff;&quot;&gt;_map&lt;/span&gt;.put(&lt;span style=&quot;color:#54b33e;&quot;&gt;&quot;result_data&quot;&lt;/span&gt;&lt;span style=&quot;color:#ed864a;font-weight:bold;&quot;&gt;, &lt;/span&gt;&lt;span style=&quot;color:#ffffff;&quot;&gt;oracle.jdbc.OracleTypes&lt;/span&gt;.&lt;span style=&quot;color:#ed94ff;font-style:italic;&quot;&gt;CURSOR&lt;/span&gt;)&lt;span style=&quot;color:#ed864a;font-weight:bold;&quot;&gt;;&lt;/span&gt;&lt;span style=&quot;color:#7ec3e6;&quot;&gt;//&lt;/span&gt;&lt;span style=&quot;color:#7ec3e6;font-family:&#39;宋体&#39;,monospace;&quot;&gt;用于接收结果集&lt;br&gt;&lt;/span&gt;&lt;span style=&quot;color:#ffffff;&quot;&gt;_map&lt;/span&gt;.put(&lt;span style=&quot;color:#54b33e;&quot;&gt;&quot;result_&quot;&lt;/span&gt;&lt;span style=&quot;color:#ed864a;font-weight:bold;&quot;&gt;, &lt;/span&gt;&lt;span style=&quot;color:#54b33e;&quot;&gt;&quot;-1&quot;&lt;/span&gt;)&lt;span style=&quot;color:#ed864a;font-weight:bold;&quot;&gt;;&lt;/span&gt;&lt;/pre&gt;" style="text;html=1;align=center;verticalAlign=middle;resizable=0;points=[];autosize=1;strokeColor=none;fillColor=none;" vertex="1" parent="1">
          <mxGeometry x="390" y="267" width="520" height="130" as="geometry" />
        </mxCell>
        <mxCell id="9b9kK_sF2ZWzqix97Q5n-32" value="&lt;pre style=&quot;background-color:#131314;color:#ebebeb;font-family:&#39;JetBrains Mono&#39;,monospace;font-size:9.8pt;&quot;&gt;Map&amp;lt;&lt;span style=&quot;color:#ffffff;&quot;&gt;String&lt;/span&gt;&lt;span style=&quot;color:#ed864a;font-weight:bold;&quot;&gt;, &lt;/span&gt;&lt;span style=&quot;color:#ffffff;&quot;&gt;String&lt;/span&gt;&amp;gt; &lt;span style=&quot;color:#ffffff;&quot;&gt;_map &lt;/span&gt;= &lt;span style=&quot;color:#ed864a;&quot;&gt;new &lt;/span&gt;HashMap&amp;lt;&lt;span style=&quot;color:#ffffff;&quot;&gt;String&lt;/span&gt;&lt;span style=&quot;color:#ed864a;font-weight:bold;&quot;&gt;, &lt;/span&gt;&lt;span style=&quot;color:#ffffff;&quot;&gt;String&lt;/span&gt;&amp;gt;()&lt;span style=&quot;color:#ed864a;font-weight:bold;&quot;&gt;;&lt;br&gt;&lt;/span&gt;&lt;span style=&quot;color:#ffffff;&quot;&gt;_map&lt;/span&gt;.put(&lt;span style=&quot;color:#54b33e;&quot;&gt;&quot;where_time_day&quot;&lt;/span&gt;&lt;span style=&quot;color:#ed864a;font-weight:bold;&quot;&gt;, &lt;/span&gt;&lt;span style=&quot;color:#ffffff;&quot;&gt;day&lt;/span&gt;)&lt;span style=&quot;color:#ed864a;font-weight:bold;&quot;&gt;;&lt;br&gt;&lt;/span&gt;&lt;span style=&quot;color:#ffffff;&quot;&gt;_map&lt;/span&gt;.put(&lt;span style=&quot;color:#54b33e;&quot;&gt;&quot;where_time_month&quot;&lt;/span&gt;&lt;span style=&quot;color:#ed864a;font-weight:bold;&quot;&gt;, &lt;/span&gt;&lt;span style=&quot;color:#ffffff;&quot;&gt;month&lt;/span&gt;)&lt;span style=&quot;color:#ed864a;font-weight:bold;&quot;&gt;;&lt;br&gt;&lt;/span&gt;&lt;span style=&quot;color:#ffffff;&quot;&gt;_map&lt;/span&gt;.put(&lt;span style=&quot;color:#54b33e;&quot;&gt;&quot;where_time_year&quot;&lt;/span&gt;&lt;span style=&quot;color:#ed864a;font-weight:bold;&quot;&gt;, &lt;/span&gt;&lt;span style=&quot;color:#ffffff;&quot;&gt;year&lt;/span&gt;)&lt;span style=&quot;color:#ed864a;font-weight:bold;&quot;&gt;;&lt;br&gt;&lt;/span&gt;&lt;span style=&quot;color:#ffffff;&quot;&gt;_map&lt;/span&gt;.put(&lt;span style=&quot;color:#54b33e;&quot;&gt;&quot;where_unitId&quot;&lt;/span&gt;&lt;span style=&quot;color:#ed864a;font-weight:bold;&quot;&gt;, &lt;/span&gt;&lt;span style=&quot;color:#ffffff;&quot;&gt;unitId&lt;/span&gt;)&lt;span style=&quot;color:#ed864a;font-weight:bold;&quot;&gt;;&lt;/span&gt;&lt;/pre&gt;" style="text;html=1;align=center;verticalAlign=middle;resizable=0;points=[];autosize=1;strokeColor=none;fillColor=none;" vertex="1" parent="1">
          <mxGeometry x="370" y="560" width="430" height="120" as="geometry" />
        </mxCell>
        <mxCell id="9b9kK_sF2ZWzqix97Q5n-33" value="前三个参数可以简化为一个当前时间，在存储过程中可以自行substr。剩下的参数where_unitId&lt;span style=&quot;background-color: initial;&quot;&gt;和上面的depCode一致&lt;/span&gt;" style="rounded=0;whiteSpace=wrap;html=1;" vertex="1" parent="1">
          <mxGeometry x="354" y="697" width="216" height="60" as="geometry" />
        </mxCell>
        <mxCell id="9b9kK_sF2ZWzqix97Q5n-34" value="" style="endArrow=classic;html=1;rounded=0;exitX=1;exitY=0.75;exitDx=0;exitDy=0;" edge="1" parent="1" source="9b9kK_sF2ZWzqix97Q5n-23">
          <mxGeometry width="50" height="50" relative="1" as="geometry">
            <mxPoint x="350" y="1130" as="sourcePoint" />
            <mxPoint x="420" y="1120" as="targetPoint" />
          </mxGeometry>
        </mxCell>
        <mxCell id="9b9kK_sF2ZWzqix97Q5n-42" value="" style="edgeStyle=none;rounded=0;orthogonalLoop=1;jettySize=auto;html=1;" edge="1" parent="1" source="9b9kK_sF2ZWzqix97Q5n-35" target="9b9kK_sF2ZWzqix97Q5n-41">
          <mxGeometry relative="1" as="geometry" />
        </mxCell>
        <mxCell id="9b9kK_sF2ZWzqix97Q5n-35" value="在实现类里做的封装参数" style="whiteSpace=wrap;html=1;" vertex="1" parent="1">
          <mxGeometry x="390" y="1080" width="120" height="60" as="geometry" />
        </mxCell>
        <mxCell id="9b9kK_sF2ZWzqix97Q5n-36" value="&lt;pre style=&quot;background-color:#131314;color:#ebebeb;font-family:&#39;JetBrains Mono&#39;,monospace;font-size:9.8pt;&quot;&gt;_map.put(&lt;span style=&quot;color:#54b33e;&quot;&gt;&quot;where_time_month&quot;&lt;/span&gt;&lt;span style=&quot;color:#ed864a;font-weight:bold;&quot;&gt;, &lt;/span&gt;&lt;span style=&quot;color:#ffffff;&quot;&gt;month&lt;/span&gt;)&lt;span style=&quot;color:#ed864a;font-weight:bold;&quot;&gt;;&lt;br&gt;&lt;/span&gt;&lt;span style=&quot;color:#ffffff;&quot;&gt;_map&lt;/span&gt;.put(&lt;span style=&quot;color:#54b33e;&quot;&gt;&quot;where_unitId&quot;&lt;/span&gt;&lt;span style=&quot;color:#ed864a;font-weight:bold;&quot;&gt;, &lt;/span&gt;&lt;span style=&quot;color:#ffffff;&quot;&gt;unitId&lt;/span&gt;)&lt;span style=&quot;color:#ed864a;font-weight:bold;&quot;&gt;;&lt;br&gt;&lt;/span&gt;&lt;span style=&quot;color:#ffffff;&quot;&gt;_map&lt;/span&gt;.put(&lt;span style=&quot;color:#54b33e;&quot;&gt;&quot;where_lt&quot;&lt;/span&gt;&lt;span style=&quot;color:#ed864a;font-weight:bold;&quot;&gt;, &lt;/span&gt;&lt;span style=&quot;color:#54b33e;&quot;&gt;&quot;1&quot;&lt;/span&gt;)&lt;span style=&quot;color:#ed864a;font-weight:bold;&quot;&gt;;&lt;/span&gt;&lt;span style=&quot;color:#7ec3e6;&quot;&gt;//&lt;/span&gt;&lt;span style=&quot;color:#7ec3e6;font-family:&#39;宋体&#39;,monospace;&quot;&gt;绿通  验货车次排名&lt;/span&gt;&lt;/pre&gt;" style="text;html=1;align=center;verticalAlign=middle;resizable=0;points=[];autosize=1;strokeColor=none;fillColor=none;" vertex="1" parent="1">
          <mxGeometry x="240" y="780" width="340" height="90" as="geometry" />
        </mxCell>
        <mxCell id="9b9kK_sF2ZWzqix97Q5n-37" value="&lt;pre style=&quot;background-color:#131314;color:#ebebeb;font-family:&#39;JetBrains Mono&#39;,monospace;font-size:9.8pt;&quot;&gt;_map.put(&lt;span style=&quot;color:#54b33e;&quot;&gt;&quot;where_lt&quot;&lt;/span&gt;&lt;span style=&quot;color:#ed864a;font-weight:bold;&quot;&gt;, &lt;/span&gt;&lt;span style=&quot;color:#54b33e;&quot;&gt;&quot;2&quot;&lt;/span&gt;)&lt;span style=&quot;color:#ed864a;font-weight:bold;&quot;&gt;;&lt;/span&gt;&lt;span style=&quot;color:#7ec3e6;&quot;&gt;//&lt;/span&gt;&lt;span style=&quot;color:#7ec3e6;font-family:&#39;宋体&#39;,monospace;&quot;&gt;非标绿通  验货车次排名&lt;/span&gt;&lt;/pre&gt;" style="text;html=1;align=center;verticalAlign=middle;resizable=0;points=[];autosize=1;strokeColor=none;fillColor=none;" vertex="1" parent="1">
          <mxGeometry x="230" y="840" width="370" height="60" as="geometry" />
        </mxCell>
        <mxCell id="9b9kK_sF2ZWzqix97Q5n-38" value="" style="endArrow=classic;html=1;rounded=0;exitX=1;exitY=0.75;exitDx=0;exitDy=0;" edge="1" parent="1" source="9b9kK_sF2ZWzqix97Q5n-6">
          <mxGeometry width="50" height="50" relative="1" as="geometry">
            <mxPoint x="350" y="1100" as="sourcePoint" />
            <mxPoint x="310" y="932" as="targetPoint" />
          </mxGeometry>
        </mxCell>
        <mxCell id="9b9kK_sF2ZWzqix97Q5n-39" value="第一个参数可以简化为当前时间，在存储过程中可以自行substr，第二个参数与depCode一致" style="text;html=1;align=center;verticalAlign=middle;resizable=0;points=[];autosize=1;strokeColor=none;fillColor=none;" vertex="1" parent="1">
          <mxGeometry x="100" y="910" width="510" height="30" as="geometry" />
        </mxCell>
        <mxCell id="9b9kK_sF2ZWzqix97Q5n-40" value="&lt;pre style=&quot;background-color:#131314;color:#ebebeb;font-family:&#39;JetBrains Mono&#39;,monospace;font-size:9.8pt;&quot;&gt;_map.put(&lt;span style=&quot;color:#54b33e;&quot;&gt;&quot;_unitId&quot;&lt;/span&gt;&lt;span style=&quot;color:#ed864a;font-weight:bold;&quot;&gt;, &lt;/span&gt;&lt;span style=&quot;color:#ffffff;&quot;&gt;unitId&lt;/span&gt;)&lt;span style=&quot;color:#ed864a;font-weight:bold;&quot;&gt;;&lt;br&gt;&lt;/span&gt;&lt;span style=&quot;color:#ffffff;&quot;&gt;_map&lt;/span&gt;.put(&lt;span style=&quot;color:#54b33e;&quot;&gt;&quot;_where&quot;&lt;/span&gt;&lt;span style=&quot;color:#ed864a;font-weight:bold;&quot;&gt;, &lt;/span&gt;&lt;span style=&quot;color:#ffffff;&quot;&gt;_where&lt;/span&gt;)&lt;span style=&quot;color:#ed864a;font-weight:bold;&quot;&gt;;&lt;br&gt;&lt;/span&gt;&lt;span style=&quot;color:#7ec3e6;&quot;&gt;// &lt;/span&gt;&lt;span style=&quot;color:#7ec3e6;font-family:&#39;宋体&#39;,monospace;&quot;&gt;设置分页参数&lt;br&gt;&lt;/span&gt;&lt;span style=&quot;color:#ffffff;&quot;&gt;_map&lt;/span&gt;.put(&lt;span style=&quot;color:#54b33e;&quot;&gt;&quot;beginrow&quot;&lt;/span&gt;&lt;span style=&quot;color:#ed864a;font-weight:bold;&quot;&gt;, &lt;/span&gt;&lt;span style=&quot;color:#33ccff;font-weight:bold;&quot;&gt;0&lt;/span&gt;)&lt;span style=&quot;color:#ed864a;font-weight:bold;&quot;&gt;;&lt;br&gt;&lt;/span&gt;&lt;span style=&quot;color:#ffffff;&quot;&gt;_map&lt;/span&gt;.put(&lt;span style=&quot;color:#54b33e;&quot;&gt;&quot;endrow&quot;&lt;/span&gt;&lt;span style=&quot;color:#ed864a;font-weight:bold;&quot;&gt;, &lt;/span&gt;&lt;span style=&quot;color:#33ccff;font-weight:bold;&quot;&gt;30&lt;/span&gt;)&lt;span style=&quot;color:#ed864a;font-weight:bold;&quot;&gt;;&lt;br&gt;&lt;/span&gt;&lt;span style=&quot;color:#7ec3e6;&quot;&gt;//&lt;/span&gt;&lt;span style=&quot;color:#7ec3e6;font-family:&#39;宋体&#39;,monospace;&quot;&gt;排序&lt;br&gt;&lt;/span&gt;&lt;span style=&quot;color:#ffffff;&quot;&gt;String _orderby &lt;/span&gt;= &lt;span style=&quot;color:#54b33e;&quot;&gt;&quot; e.CHECK_TIME desc&quot;&lt;/span&gt;&lt;span style=&quot;color:#ed864a;font-weight:bold;&quot;&gt;;&lt;/span&gt;&lt;span style=&quot;color:#7ec3e6;&quot;&gt;// &lt;/span&gt;&lt;span style=&quot;color:#7ec3e6;font-family:&#39;宋体&#39;,monospace;&quot;&gt;按 添加时间（精确到秒） 排序&lt;br&gt;&lt;/span&gt;&lt;span style=&quot;color:#ffffff;&quot;&gt;_map&lt;/span&gt;.put(&lt;span style=&quot;color:#54b33e;&quot;&gt;&quot;_orderby&quot;&lt;/span&gt;&lt;span style=&quot;color:#ed864a;font-weight:bold;&quot;&gt;, &lt;/span&gt;&lt;span style=&quot;color:#ffffff;&quot;&gt;_orderby&lt;/span&gt;)&lt;span style=&quot;color:#ed864a;font-weight:bold;&quot;&gt;;&lt;br&gt;&lt;/span&gt;&lt;/pre&gt;" style="text;html=1;align=center;verticalAlign=middle;resizable=0;points=[];autosize=1;strokeColor=none;fillColor=none;" vertex="1" parent="1">
          <mxGeometry x="190" y="930" width="500" height="170" as="geometry" />
        </mxCell>
        <mxCell id="9b9kK_sF2ZWzqix97Q5n-41" value="_unitId是上面的depCode，where_，基于当前时间的30天前的时间，where=check_time&amp;gt;这个30天前的时间" style="whiteSpace=wrap;html=1;" vertex="1" parent="1">
          <mxGeometry x="610" y="1080" width="200" height="70" as="geometry" />
        </mxCell>
      </root>
    </mxGraphModel>
  </diagram>
</mxfile>
